<mxfile host="app.diagrams.net" agent="Mozilla/5.0 (Windows NT 10.0; Win64; x64) AppleWebKit/537.36 (KHTML, like Gecko) Chrome/128.0.0.0 Safari/537.36" version="24.7.8">
  <diagram name="Страница — 1" id="k7zy3DF9wW70wXqjeyai">
    <mxGraphModel dx="794" dy="454" grid="1" gridSize="10" guides="1" tooltips="1" connect="1" arrows="1" fold="1" page="1" pageScale="1" pageWidth="827" pageHeight="1169" math="0" shadow="0">
      <root>
        <mxCell id="0" />
        <mxCell id="1" parent="0" />
        <mxCell id="xgjl1Pe9y9GeGSzuDbR7-4" style="edgeStyle=orthogonalEdgeStyle;rounded=0;orthogonalLoop=1;jettySize=auto;html=1;exitX=0.5;exitY=1;exitDx=0;exitDy=0;entryX=0.5;entryY=0;entryDx=0;entryDy=0;" edge="1" parent="1" source="xgjl1Pe9y9GeGSzuDbR7-1" target="xgjl1Pe9y9GeGSzuDbR7-3">
          <mxGeometry relative="1" as="geometry" />
        </mxCell>
        <mxCell id="xgjl1Pe9y9GeGSzuDbR7-1" value="&amp;nbsp; &amp;nbsp; &amp;nbsp; &amp;nbsp; &amp;nbsp; Начало&amp;nbsp; &amp;nbsp; &amp;nbsp; &amp;nbsp; &amp;nbsp; &amp;nbsp;&amp;nbsp;" style="rounded=1;whiteSpace=wrap;html=1;fillColor=#ffe6cc;strokeColor=#d79b00;" vertex="1" parent="1">
          <mxGeometry x="340" y="300" width="120" height="60" as="geometry" />
        </mxCell>
        <mxCell id="xgjl1Pe9y9GeGSzuDbR7-5" style="edgeStyle=orthogonalEdgeStyle;rounded=0;orthogonalLoop=1;jettySize=auto;html=1;exitX=0.5;exitY=1;exitDx=0;exitDy=0;" edge="1" parent="1" source="xgjl1Pe9y9GeGSzuDbR7-3">
          <mxGeometry relative="1" as="geometry">
            <mxPoint x="400" y="490" as="targetPoint" />
          </mxGeometry>
        </mxCell>
        <mxCell id="xgjl1Pe9y9GeGSzuDbR7-3" value="Ввод массива строк" style="rounded=1;whiteSpace=wrap;html=1;fillColor=#dae8fc;strokeColor=#6c8ebf;" vertex="1" parent="1">
          <mxGeometry x="340" y="390" width="120" height="60" as="geometry" />
        </mxCell>
        <mxCell id="xgjl1Pe9y9GeGSzuDbR7-7" style="edgeStyle=orthogonalEdgeStyle;rounded=0;orthogonalLoop=1;jettySize=auto;html=1;" edge="1" parent="1" source="xgjl1Pe9y9GeGSzuDbR7-6" target="xgjl1Pe9y9GeGSzuDbR7-8">
          <mxGeometry relative="1" as="geometry">
            <mxPoint x="400" y="590" as="targetPoint" />
          </mxGeometry>
        </mxCell>
        <mxCell id="xgjl1Pe9y9GeGSzuDbR7-6" value="Создать новый пустой массив такой же длины, как исходный" style="rounded=1;whiteSpace=wrap;html=1;fillColor=#dae8fc;strokeColor=#6c8ebf;" vertex="1" parent="1">
          <mxGeometry x="340" y="490" width="120" height="60" as="geometry" />
        </mxCell>
        <mxCell id="xgjl1Pe9y9GeGSzuDbR7-9" style="edgeStyle=orthogonalEdgeStyle;rounded=0;orthogonalLoop=1;jettySize=auto;html=1;" edge="1" parent="1" source="xgjl1Pe9y9GeGSzuDbR7-8" target="xgjl1Pe9y9GeGSzuDbR7-10">
          <mxGeometry relative="1" as="geometry">
            <mxPoint x="400" y="680" as="targetPoint" />
          </mxGeometry>
        </mxCell>
        <mxCell id="xgjl1Pe9y9GeGSzuDbR7-8" value="Инициализация index = 0" style="rounded=1;whiteSpace=wrap;html=1;fillColor=#dae8fc;strokeColor=#6c8ebf;" vertex="1" parent="1">
          <mxGeometry x="340" y="590" width="120" height="60" as="geometry" />
        </mxCell>
        <mxCell id="xgjl1Pe9y9GeGSzuDbR7-15" style="edgeStyle=orthogonalEdgeStyle;rounded=0;orthogonalLoop=1;jettySize=auto;html=1;exitX=0.25;exitY=1;exitDx=0;exitDy=0;" edge="1" parent="1" source="xgjl1Pe9y9GeGSzuDbR7-10" target="xgjl1Pe9y9GeGSzuDbR7-11">
          <mxGeometry relative="1" as="geometry" />
        </mxCell>
        <mxCell id="xgjl1Pe9y9GeGSzuDbR7-10" value="Цикл по элементам исходного массива" style="rounded=1;whiteSpace=wrap;html=1;fillColor=#dae8fc;strokeColor=#6c8ebf;" vertex="1" parent="1">
          <mxGeometry x="340" y="690" width="120" height="60" as="geometry" />
        </mxCell>
        <mxCell id="xgjl1Pe9y9GeGSzuDbR7-16" style="edgeStyle=orthogonalEdgeStyle;rounded=0;orthogonalLoop=1;jettySize=auto;html=1;exitX=1;exitY=0;exitDx=0;exitDy=0;entryX=0.75;entryY=1;entryDx=0;entryDy=0;" edge="1" parent="1" source="xgjl1Pe9y9GeGSzuDbR7-11" target="xgjl1Pe9y9GeGSzuDbR7-10">
          <mxGeometry relative="1" as="geometry" />
        </mxCell>
        <mxCell id="xgjl1Pe9y9GeGSzuDbR7-20" style="edgeStyle=orthogonalEdgeStyle;rounded=0;orthogonalLoop=1;jettySize=auto;html=1;exitX=1;exitY=1;exitDx=0;exitDy=0;entryX=1;entryY=0;entryDx=0;entryDy=0;" edge="1" parent="1" source="xgjl1Pe9y9GeGSzuDbR7-11" target="xgjl1Pe9y9GeGSzuDbR7-13">
          <mxGeometry relative="1" as="geometry" />
        </mxCell>
        <mxCell id="xgjl1Pe9y9GeGSzuDbR7-21" style="edgeStyle=orthogonalEdgeStyle;rounded=0;orthogonalLoop=1;jettySize=auto;html=1;exitX=0;exitY=1;exitDx=0;exitDy=0;entryX=0;entryY=0;entryDx=0;entryDy=0;" edge="1" parent="1" source="xgjl1Pe9y9GeGSzuDbR7-11" target="xgjl1Pe9y9GeGSzuDbR7-13">
          <mxGeometry relative="1" as="geometry" />
        </mxCell>
        <mxCell id="xgjl1Pe9y9GeGSzuDbR7-11" value="Длина строки ≤ 3?" style="rhombus;whiteSpace=wrap;html=1;fillColor=#f8cecc;strokeColor=#b85450;" vertex="1" parent="1">
          <mxGeometry x="350" y="790" width="100" height="100" as="geometry" />
        </mxCell>
        <mxCell id="xgjl1Pe9y9GeGSzuDbR7-23" style="edgeStyle=orthogonalEdgeStyle;rounded=0;orthogonalLoop=1;jettySize=auto;html=1;exitX=0.5;exitY=1;exitDx=0;exitDy=0;" edge="1" parent="1" source="xgjl1Pe9y9GeGSzuDbR7-13" target="xgjl1Pe9y9GeGSzuDbR7-22">
          <mxGeometry relative="1" as="geometry" />
        </mxCell>
        <mxCell id="xgjl1Pe9y9GeGSzuDbR7-13" value="Добавить строку в новый массив" style="rounded=1;whiteSpace=wrap;html=1;fillColor=#dae8fc;strokeColor=#6c8ebf;" vertex="1" parent="1">
          <mxGeometry x="340" y="930" width="120" height="60" as="geometry" />
        </mxCell>
        <mxCell id="xgjl1Pe9y9GeGSzuDbR7-17" value="Да" style="text;html=1;align=center;verticalAlign=middle;whiteSpace=wrap;rounded=0;" vertex="1" parent="1">
          <mxGeometry x="320" y="870" width="60" height="30" as="geometry" />
        </mxCell>
        <mxCell id="xgjl1Pe9y9GeGSzuDbR7-18" value="Нет" style="text;html=1;align=center;verticalAlign=middle;whiteSpace=wrap;rounded=0;" vertex="1" parent="1">
          <mxGeometry x="440" y="870" width="60" height="30" as="geometry" />
        </mxCell>
        <mxCell id="xgjl1Pe9y9GeGSzuDbR7-28" style="edgeStyle=orthogonalEdgeStyle;rounded=0;orthogonalLoop=1;jettySize=auto;html=1;exitX=0.5;exitY=1;exitDx=0;exitDy=0;entryX=0.5;entryY=0;entryDx=0;entryDy=0;" edge="1" parent="1" source="xgjl1Pe9y9GeGSzuDbR7-22" target="xgjl1Pe9y9GeGSzuDbR7-25">
          <mxGeometry relative="1" as="geometry" />
        </mxCell>
        <mxCell id="xgjl1Pe9y9GeGSzuDbR7-22" value="Увеличить index на 1" style="rounded=1;whiteSpace=wrap;html=1;fillColor=#dae8fc;strokeColor=#6c8ebf;" vertex="1" parent="1">
          <mxGeometry x="340" y="1040" width="120" height="60" as="geometry" />
        </mxCell>
        <mxCell id="xgjl1Pe9y9GeGSzuDbR7-27" style="edgeStyle=orthogonalEdgeStyle;rounded=0;orthogonalLoop=1;jettySize=auto;html=1;exitX=0.5;exitY=1;exitDx=0;exitDy=0;entryX=0.5;entryY=0;entryDx=0;entryDy=0;" edge="1" parent="1" source="xgjl1Pe9y9GeGSzuDbR7-25" target="xgjl1Pe9y9GeGSzuDbR7-26">
          <mxGeometry relative="1" as="geometry" />
        </mxCell>
        <mxCell id="xgjl1Pe9y9GeGSzuDbR7-32" style="edgeStyle=orthogonalEdgeStyle;rounded=0;orthogonalLoop=1;jettySize=auto;html=1;exitX=1;exitY=0.5;exitDx=0;exitDy=0;entryX=1;entryY=0.5;entryDx=0;entryDy=0;" edge="1" parent="1" source="xgjl1Pe9y9GeGSzuDbR7-25" target="xgjl1Pe9y9GeGSzuDbR7-11">
          <mxGeometry relative="1" as="geometry">
            <Array as="points">
              <mxPoint x="540" y="1190" />
              <mxPoint x="540" y="840" />
            </Array>
          </mxGeometry>
        </mxCell>
        <mxCell id="xgjl1Pe9y9GeGSzuDbR7-25" value="Следующий элемент?" style="rhombus;whiteSpace=wrap;html=1;fillColor=#f8cecc;strokeColor=#b85450;" vertex="1" parent="1">
          <mxGeometry x="350" y="1140" width="100" height="100" as="geometry" />
        </mxCell>
        <mxCell id="xgjl1Pe9y9GeGSzuDbR7-30" style="edgeStyle=orthogonalEdgeStyle;rounded=0;orthogonalLoop=1;jettySize=auto;html=1;exitX=0.5;exitY=1;exitDx=0;exitDy=0;" edge="1" parent="1" source="xgjl1Pe9y9GeGSzuDbR7-26" target="xgjl1Pe9y9GeGSzuDbR7-29">
          <mxGeometry relative="1" as="geometry" />
        </mxCell>
        <mxCell id="xgjl1Pe9y9GeGSzuDbR7-26" value="Вернуть массив до index" style="rounded=1;whiteSpace=wrap;html=1;fillColor=#dae8fc;strokeColor=#6c8ebf;" vertex="1" parent="1">
          <mxGeometry x="340" y="1290" width="120" height="60" as="geometry" />
        </mxCell>
        <mxCell id="xgjl1Pe9y9GeGSzuDbR7-29" value="Конец" style="rounded=1;whiteSpace=wrap;html=1;fillColor=#fa6800;fontColor=#000000;strokeColor=#C73500;" vertex="1" parent="1">
          <mxGeometry x="340" y="1400" width="120" height="60" as="geometry" />
        </mxCell>
      </root>
    </mxGraphModel>
  </diagram>
</mxfile>
